<?xml version="1.0" standalone="no"?>
<!DOCTYPE svg PUBLIC "-//W3C//DTD SVG 20010904//EN"
 "http://www.w3.org/TR/2001/REC-SVG-20010904/DTD/svg10.dtd">
<svg version="1.0" xmlns="http://www.w3.org/2000/svg"
 width="700.000000pt" height="700.000000pt" viewBox="0 0 700.000000 700.000000"
 preserveAspectRatio="xMidYMid meet">
<metadata>
Created by potrace 1.11, written by Peter Selinger 2001-2013
</metadata>
<g transform="translate(0.000000,700.000000) scale(0.100000,-0.100000)"
fill="#000000" stroke="none">
<path d="M875 6989 c-224 -29 -431 -133 -596 -301 -113 -116 -198 -270 -247
-447 l-27 -96 0 -2645 0 -2645 23 -90 c30 -120 116 -294 192 -388 140 -174
327 -293 547 -350 l88 -22 2645 0 2645 0 90 23 c120 30 294 116 388 192 174
140 293 327 350 547 l22 88 0 2645 0 2645 -27 99 c-114 412 -439 694 -858 746
-106 13 -5132 12 -5235 -1z m1557 -986 c46 -54 87 -103 91 -109 4 -7 -40 -58
-104 -120 -294 -289 -461 -581 -514 -903 -25 -145 -17 -338 19 -476 69 -265
264 -534 505 -696 44 -30 80 -58 81 -62 0 -14 -134 -229 -147 -234 -7 -3 -47
20 -90 50 -346 244 -567 569 -650 957 -27 129 -25 429 5 566 60 276 192 545
389 789 69 86 312 335 326 335 3 0 43 -44 89 -97z m2323 -22 c44 -31 132 -108
196 -171 217 -216 353 -464 416 -760 27 -128 25 -429 -5 -563 -78 -351 -252
-662 -536 -955 -50 -52 -112 -111 -137 -133 l-47 -39 -91 107 -91 106 143 147
c190 196 297 347 383 542 87 195 120 366 111 572 -12 282 -118 527 -323 745
-71 76 -262 231 -284 231 -20 0 -9 24 62 141 l73 118 25 -16 c14 -9 61 -41
105 -72z m-523 -440 c244 -164 398 -426 415 -707 13 -226 -57 -456 -203 -660
-52 -72 -209 -242 -254 -274 l-27 -19 -74 91 c-41 50 -80 100 -88 110 -12 18
-5 28 81 116 52 53 114 125 137 160 184 273 187 569 8 800 -35 46 -102 104
-198 173 l-23 16 49 89 c65 122 85 154 95 154 5 0 41 -22 82 -49z m-1344 -71
l91 -110 -79 -77 c-137 -130 -236 -285 -276 -433 -26 -95 -25 -254 3 -345 42
-134 141 -262 269 -347 l62 -41 -40 -71 c-21 -39 -51 -95 -66 -123 -14 -29
-31 -53 -37 -53 -19 0 -144 90 -210 151 -88 82 -149 166 -201 274 -153 315
-111 670 117 995 44 64 257 290 272 290 2 0 45 -50 95 -110z m743 -463 c74
-36 136 -99 173 -177 27 -57 31 -75 31 -150 0 -76 -4 -93 -33 -152 -110 -224
-399 -272 -575 -96 -185 185 -114 497 134 589 78 28 196 22 270 -14z m-142
-1175 c19 -10 42 -34 53 -53 16 -29 176 -571 682 -2310 47 -163 86 -313 86
-334 0 -94 -102 -160 -193 -126 -13 5 -250 208 -527 451 -276 243 -506 438
-510 433 -5 -4 -63 -210 -130 -458 -67 -247 -128 -460 -136 -473 -66 -103
-237 -68 -260 53 -4 25 64 289 286 1106 160 591 325 1200 367 1354 42 154 84
294 94 311 36 60 123 81 188 46z"/>
<path d="M3418 3153 c-3 -10 -47 -172 -98 -361 -51 -188 -91 -345 -88 -348 4
-3 325 142 356 162 4 2 -157 556 -162 562 -2 1 -6 -5 -8 -15z"/>
<path d="M3458 2227 c-104 -50 -188 -94 -188 -97 0 -4 118 -110 263 -237 144
-127 284 -250 311 -274 34 -30 47 -37 43 -24 -200 687 -212 725 -227 724 -8 0
-99 -42 -202 -92z"/>
</g>
</svg>
