<svg width="1920" height="700" viewBox="0 0 1920 700" fill="none" xmlns="http://www.w3.org/2000/svg">
<rect width="1920" height="700" fill="white"/>
<path d="M0 0H1920V700H0V0Z" fill="url(#paint0_linear)"/>
<path fill-rule="evenodd" clip-rule="evenodd" d="M954.817 267.331C958.747 267.294 962.222 269.874 963.325 273.646L1009.44 431.353C1010.53 435.1 1009.02 439.121 1005.73 441.219C1002.44 443.317 998.153 442.989 995.219 440.414L933.922 386.607L918.771 442.276C917.498 446.954 912.673 449.714 907.995 448.441C903.317 447.168 900.557 442.343 901.831 437.666L946.429 273.804C947.461 270.012 950.888 267.368 954.817 267.331ZM944.957 372.933L984.112 407.303L970.509 360.777L944.957 372.933ZM965.519 343.709L955.202 308.424L942.635 354.595L965.519 343.709Z" fill="white"/>
<path d="M980.527 216.124C980.527 228.244 970.702 238.07 958.582 238.07C946.461 238.07 936.636 228.244 936.636 216.124C936.636 204.004 946.461 194.178 958.582 194.178C970.702 194.178 980.527 204.004 980.527 216.124Z" fill="white"/>
<path fill-rule="evenodd" clip-rule="evenodd" d="M1075.93 206.617C1077.14 237.291 1062.35 269.701 1030.14 297.396L1018.7 284.084C1047.79 259.063 1059.34 231.487 1058.39 207.308C1057.44 183.154 1043.98 160.821 1019.84 146.073L1029 131.092C1057.53 148.53 1074.72 175.919 1075.93 206.617Z" fill="white"/>
<path fill-rule="evenodd" clip-rule="evenodd" d="M1030.37 207.591C1031.29 227.483 1021.54 248.264 1000.72 265.34L989.591 251.765C1007.09 237.414 1013.44 221.619 1012.83 208.402C1012.22 195.191 1004.61 182.998 990.954 175.55L999.361 160.137C1017.89 170.245 1029.44 187.694 1030.37 207.591Z" fill="white"/>
<path fill-rule="evenodd" clip-rule="evenodd" d="M843.068 219.778C841.861 189.105 856.649 156.695 888.858 129L900.305 142.312C871.206 167.333 859.659 194.908 860.611 219.088C861.562 243.242 875.024 265.574 899.159 280.323L890.004 295.304C861.468 277.865 844.277 250.477 843.068 219.778Z" fill="white"/>
<path fill-rule="evenodd" clip-rule="evenodd" d="M886.951 218.805C886.03 198.913 895.773 178.131 916.592 161.056L927.726 174.631C910.228 188.982 903.877 204.777 904.489 217.993C905.101 231.205 912.708 243.398 926.363 250.846L917.956 266.259C899.424 256.15 887.872 238.702 886.951 218.805Z" fill="white"/>
<defs>
<linearGradient id="paint0_linear" x1="960" y1="0" x2="960" y2="700" gradientUnits="userSpaceOnUse">
<stop stop-color="#6992C7"/>
<stop offset="0.776042" stop-color="#A3BDED"/>
<stop offset="1" stop-color="#F8F8FF"/>
</linearGradient>
</defs>
</svg>
